HIERARCHY
ROOT Hips
{
     OFFSET 1.88212 96.90440 -13.34250
     CHANNELS 6 Xposition Yposition Zposition Zrotation Xrotation Yrotation
     JOINT Spine
     {
          OFFSET 0.00000 11.89050 0.00000
          CHANNELS 3 Zrotation Xrotation Yrotation
          JOINT Spine1
          {
               OFFSET -0.00000 25.65740 0.12766
               CHANNELS 3 Zrotation Xrotation Yrotation
               JOINT HEad
               {
                    OFFSET 0.00000 8.73416 0.01134
                    CHANNELS 3 Zrotation Xrotation Yrotation
                    End Site
                    {
                         OFFSET -0.29000 12.77420 2.51395
                    }
               }
               JOINT LeftShoulder1
               {
                    OFFSET 8.99000 -0.36225 -0.22000
                    CHANNELS 3 Zrotation Xrotation Yrotation
                    JOINT LeftArm
                    {
                         OFFSET 10.28270 -0.00338 0.32212
                         CHANNELS 3 Zrotation Xrotation Yrotation
                         JOINT LeftForeArm
                         {
                              OFFSET 32.76690 0.09914 -1.42434
                              CHANNELS 3 Zrotation Xrotation Yrotation
                              JOINT LeftHand
                              {
                                   OFFSET 27.56430 0.08536 1.02216
                                   CHANNELS 3 Zrotation Xrotation Yrotation
                                   End Site
                                   {
                                        OFFSET 16.74430 -0.60000 1.50291
                                   }
                              }
                         }
                    }
               }
               JOINT RightShoulder
               {
                    OFFSET -8.99000 -0.36225 -0.22000
                    CHANNELS 3 Zrotation Xrotation Yrotation
                    JOINT RightArm
                    {
                         OFFSET -10.28270 -0.00338 0.32212
                         CHANNELS 3 Zrotation Xrotation Yrotation
                         JOINT RightForeArm
                         {
                              OFFSET -32.89710 0.09914 -1.42434
                              CHANNELS 3 Zrotation Xrotation Yrotation
                              JOINT RightHand
                              {
                                   OFFSET -27.49210 0.08536 1.02216
                                   CHANNELS 3 Zrotation Xrotation Yrotation
                                   End Site
                                   {
                                        OFFSET -16.63120 -0.60000 1.50291
                                   }
                              }
                         }
                    }
               }
          }
     }
     JOINT LeftUpLeg
     {
          OFFSET 8.94580 -8.66707 0.10165
          CHANNELS 3 Zrotation Xrotation Yrotation
          JOINT LeftLeg
          {
               OFFSET 0.00000 -44.42270 1.37270
               CHANNELS 3 Zrotation Xrotation Yrotation
               JOINT LeftFoot
               {
                    OFFSET -0.25355 -42.09240 -1.46059
                    CHANNELS 3 Zrotation Xrotation Yrotation
                    JOINT LeftToes
                    {
                         OFFSET -0.04000 -4.41509 8.49910
                         CHANNELS 3 Zrotation Xrotation Yrotation
                         End Site
                         {
                              OFFSET 0.08000 -0.04745 9.77979
                         }
                    }
               }
          }
     }
     JOINT RightUpLeg
     {
          OFFSET -8.94580 -8.66707 0.10165
          CHANNELS 3 Zrotation Xrotation Yrotation
          JOINT RightLeg
          {
               OFFSET 0.00000 -44.42270 1.37270
               CHANNELS 3 Zrotation Xrotation Yrotation
               JOINT RightFoot
               {
                    OFFSET 0.25355 -42.09240 -1.46059
                    CHANNELS 3 Zrotation Xrotation Yrotation
                    JOINT RightToes
                    {
                         OFFSET 0.04000 -4.41509 8.49910
                         CHANNELS 3 Zrotation Xrotation Yrotation
                         End Site
                         {
                              OFFSET -0.08000 -0.13745 9.77979
                         }
                    }
               }
          }
     }
}
MOTION
Frames: 20
Frame Time: 0.01667
110.71875 93.44648 -103.66019 6.86846 -3.36056 -59.60556 -10.57580 6.64146 11.93803 -0.00075 -0.00177 -0.00131 -5.55610 24.20751 7.92349 1.50937 2.40526 -7.67245 -114.28551 -79.60179 -81.54834 -33.42222 56.95640 -111.41229 7.83614 8.11671 1.07999 18.00162 1.04046 -0.23312 58.08754 -2.00286 63.82167 29.23696 46.88141 111.88416 -6.81271 11.50643 1.64065 -22.59539 -26.49450 -5.91450 386.70758 14.29678 -380.94330 76.25124 -0.08511 -0.70757 -87.59846 2.99329 -14.57000 -6.93037 7.55372 -16.67457 -358.87695 28.23082 369.60239 -14.99355 -0.14618 0.09267 -0.76794 -48.45905 -23.43984 
112.27171 92.90797 -104.00744 8.22754 -4.09478 -62.90728 -13.29705 5.65772 13.60445 -0.01240 0.01585 -0.02821 -6.49502 24.56706 8.99749 3.69924 1.72532 -8.39939 -109.35422 -78.21651 -76.37246 -32.32775 55.68561 -110.10708 8.47481 8.83221 0.55842 18.42056 1.40926 -5.07032 60.63853 0.74339 65.98282 28.81233 46.87457 110.40907 -5.20657 12.59453 -2.29683 -24.49032 -25.41913 -10.85870 388.92166 10.82787 -380.54599 84.50076 -0.20191 -0.59400 -102.57696 2.33480 -8.48046 -4.78937 11.48696 -19.30075 -362.16299 16.67257 371.08340 -14.95057 -0.01878 -0.01273 -2.54966 -47.45078 -21.36881 
113.69521 92.28503 -104.26450 8.68266 -4.87269 -66.16310 -15.75142 5.23351 14.84807 -0.01048 0.01724 -0.02947 -7.48378 24.78385 10.50004 5.39765 1.48084 -7.76786 -105.35912 -75.17509 -72.73103 -31.87673 54.65391 -106.56619 9.69584 10.35456 -1.01246 18.98604 2.02992 -7.97594 63.13340 2.65921 67.23684 27.70331 45.92580 108.32489 -2.31698 15.03466 -8.13713 -24.93988 -23.70858 -15.20324 390.59503 7.95926 -379.03391 92.47527 -0.26404 -0.46010 -115.46034 4.87143 2.88418 -2.88788 15.86303 -21.63609 -363.27219 4.68316 371.09024 -13.13770 0.08343 -0.09632 -2.27145 -44.02972 -16.08671 
115.03346 91.50797 -104.46080 8.28015 -5.59722 -69.27406 -17.90734 5.39177 15.63436 -0.00763 0.01730 -0.02895 -8.57708 24.82324 12.42880 6.67902 1.55020 -6.12981 -102.63052 -72.15354 -70.83774 -31.91156 53.51419 -103.13891 10.93168 11.80529 -2.41775 19.57985 2.83157 -9.30378 65.59193 3.95400 67.82427 25.80394 44.16964 105.96061 2.08057 18.59678 -14.27896 -24.20598 -21.34011 -19.08650 392.80643 5.34788 -376.66739 90.21871 0.05836 0.05170 -118.17278 7.14339 12.07889 -1.19101 20.62153 -23.82911 -362.65756 -7.24866 370.26880 -10.42396 0.15060 -0.15726 -1.61940 -38.78018 -9.37336 
116.25371 90.61727 -104.60703 5.49397 -6.03009 -71.49131 -18.77250 7.37565 15.79725 0.00251 0.00096 0.00338 -9.82956 25.16755 14.52637 6.49819 2.52926 -3.91231 -101.86288 -70.12708 -71.81420 -32.04884 52.87862 -100.56581 12.08109 13.06471 -3.57853 19.92501 4.05376 -7.12709 67.85884 2.98750 67.19206 21.90617 39.75181 102.41608 5.58381 11.21630 -1.00236 -21.06150 -17.09412 -22.32215 392.44455 4.20468 -371.10413 89.31660 -0.00393 0.02023 -117.88699 8.81271 14.68660 0.16450 26.31624 -25.45234 -359.05878 -17.59398 367.00482 -7.68587 0.21183 -0.21186 -0.06554 -30.13084 0.13022 
117.35583 89.70101 -104.73424 2.78661 -6.23313 -73.26237 -19.27069 8.99093 15.40513 0.00195 0.00465 0.00880 -11.26678 25.71420 16.78569 6.25460 3.74599 -1.70110 -102.73973 -69.25067 -73.94222 -32.27226 52.75074 -98.45687 12.59221 13.31229 -4.45586 20.04396 5.56906 -5.10588 69.86382 2.83678 66.81971 16.24024 33.97128 98.59577 10.57611 11.31058 1.37088 -17.04547 -13.39981 -25.30283 389.85092 3.57589 -363.46768 89.64775 -0.02711 0.00388 -117.83888 11.03190 15.82553 -0.01798 31.17738 -25.66871 -354.10706 -23.48107 364.17862 -12.32327 -0.20826 0.18523 4.44745 -25.53597 6.40808 
118.34814 88.88570 -104.84140 0.19218 -6.25235 -74.61276 -19.58691 10.62601 14.84096 0.00203 0.00578 0.00862 -12.61436 26.13981 18.74474 6.05558 4.82183 0.14021 -105.08222 -69.11874 -77.14114 -32.51907 53.05459 -96.61709 13.20519 13.52910 -5.29011 20.04652 6.91862 -3.47296 71.66628 3.33271 66.64414 9.07721 27.58534 95.10309 16.66559 5.44997 13.73953 -12.47686 -10.38636 -27.90730 385.39008 2.68291 -354.64951 91.18610 -0.03579 0.04531 -116.66733 13.79220 13.88895 -1.48452 35.13910 -24.39923 -349.67194 -26.54384 362.11533 -13.05129 -0.01893 0.06188 4.74753 -22.43392 10.76644 
119.24893 88.24375 -104.90697 -2.25605 -6.17055 -75.56605 -19.78388 12.28477 14.12587 0.00239 0.00786 0.01008 -13.83144 26.44670 20.39404 5.86967 5.76479 1.66707 -108.51193 -69.33800 -81.17561 -32.71193 53.68267 -94.97613 13.49044 13.25193 -5.89508 20.02537 8.08942 -1.92607 73.25978 4.01105 66.66994 4.23485 24.44154 93.27972 19.06246 5.86425 15.03576 -7.97014 -8.12660 -30.02146 380.37854 1.10319 -345.48328 90.08331 -0.01018 -0.04918 -111.90086 16.75970 10.24039 -3.93854 38.04848 -21.76042 -345.46957 -27.52569 360.30646 -15.55381 -0.04994 0.05109 5.73623 -21.01170 13.24648 
120.09417 87.85332 -104.88689 -4.53057 -6.05211 -76.16463 -19.90704 13.95767 13.29338 0.00380 0.00988 0.01162 -14.89240 26.63981 21.73513 5.65592 6.57638 2.93068 -112.66692 -69.65992 -85.78318 -32.79836 54.53743 -93.53780 13.89138 13.03148 -6.43722 20.06660 9.08342 -0.44122 74.55464 4.57034 66.86462 1.13245 23.04317 92.49588 20.99175 4.08423 19.49263 -3.75224 -6.50830 -31.44435 374.48309 -0.93013 -336.47388 89.60958 -0.01419 -0.03157 -105.79808 19.31232 4.49306 -7.11037 39.80922 -17.96169 -341.43808 -26.97833 358.34283 -17.56686 -0.02312 0.02540 5.62486 -20.41834 14.61266 
120.91730 87.69656 -104.74434 -6.60664 -5.93093 -76.46143 -19.97478 15.62569 12.37937 0.00542 0.01161 0.01284 -15.77880 26.72326 22.76944 5.38247 7.25268 3.96757 -117.19763 -69.93830 -90.67046 -32.72705 55.54508 -92.33540 14.12959 12.58197 -6.79290 20.22065 9.91161 0.94954 75.51138 4.87069 67.16531 -0.72494 22.58432 92.20588 20.86272 5.11525 18.24742 0.14551 -5.40018 -32.01103 367.95786 -3.25839 -328.01904 89.47559 -0.01419 -0.01013 -98.59642 20.53822 -2.92575 -10.73051 40.40170 -13.27747 -337.59595 -25.31777 355.91824 -20.23220 -0.01496 0.00436 5.72269 -20.74213 15.14440 
121.73827 87.70285 -104.45475 -8.46231 -5.81817 -76.51626 -19.98519 17.26270 11.41670 0.00687 0.01323 0.01310 -16.48402 26.70246 23.50542 5.04458 7.79026 4.78952 -121.80969 -70.10548 -95.55969 -32.44540 56.64186 -91.40461 14.45529 12.20407 -7.09774 20.46090 10.58581 2.16128 76.17097 4.91839 67.49512 -1.72797 22.60629 92.24692 21.18806 4.82772 19.60806 3.77735 -4.69651 -31.61160 360.93137 -5.59058 -320.36353 89.37149 -0.01161 -0.00633 -90.60981 19.88280 -11.61569 -14.53071 39.87221 -8.00791 -333.91037 -22.88749 352.84955 -22.73959 -0.00263 -0.01152 5.50820 -21.60265 15.05672 
122.55962 87.78492 -104.01320 -10.08131 -5.71058 -76.39149 -19.92533 18.84148 10.43764 0.00776 0.01387 0.01310 -17.00993 26.58495 23.95475 4.66471 8.19110 5.42578 -126.19246 -70.12648 -100.14117 -31.92728 57.75322 -90.76553 14.69052 11.72056 -7.29798 20.74061 11.11300 3.21467 76.60916 4.70191 67.80170 -2.17747 22.87298 92.43197 20.44957 5.91485 18.02307 7.20597 -4.31029 -30.21812 353.49316 -7.53914 -313.58508 89.01382 -0.01317 -0.02597 -82.54629 17.04462 -20.76955 -18.25572 38.30605 -2.45098 -330.31235 -19.95584 349.08371 -25.18329 0.00506 -0.02506 5.28520 -22.96699 14.48281 
123.37140 87.85947 -103.42991 -11.45699 -5.59475 -76.14816 -19.77572 20.33481 9.47131 0.00816 0.01384 0.01263 -17.36816 26.37860 24.13874 4.26936 8.46286 5.88726 -130.04324 -70.00661 -104.12951 -31.14554 58.78075 -90.43346 14.96373 11.30327 -7.47084 21.00618 11.49758 4.09386 76.90409 4.28020 68.05649 -2.28223 23.24615 92.74918 20.26474 6.20664 18.31279 10.44723 -4.15967 -27.83860 345.81882 -8.66691 -307.63898 88.14388 -0.02346 -0.07094 -75.05009 12.13420 -29.74174 -21.68532 35.81259 3.12825 -326.71823 -16.71772 344.66827 -27.23037 0.00731 -0.03158 4.90876 -24.70100 13.52566 
124.15582 87.85999 -102.72520 -12.59356 -5.45233 -75.84375 -19.51808 21.71743 8.54640 0.00800 0.01353 0.01199 -17.57603 26.09258 24.08565 3.87937 8.61997 6.19592 -133.18411 -69.77135 -107.36384 -30.12548 59.65751 -90.38136 15.15588 10.84855 -7.57113 21.21723 11.74717 4.82071 77.12337 3.69939 68.26730 -2.17884 23.65690 93.11935 19.51023 7.11460 17.04201 13.43586 -4.16173 -24.48997 338.27167 -8.54185 -302.40024 86.52208 -0.04184 -0.14070 -68.58330 5.62550 -38.13670 -24.66079 32.51849 8.52348 -323.05219 -13.31018 339.71851 -28.81754 0.00434 -0.03326 4.45216 -26.75940 12.27566 
124.89886 87.74755 -101.92457 -13.50209 -5.26877 -75.52757 -19.14385 22.96611 7.68817 0.00743 0.01289 0.01111 -17.65603 25.73792 23.83099 3.50738 8.68343 6.38006 -135.56647 -69.45257 -109.81129 -28.93891 60.34687 -90.55102 15.34208 10.45905 -7.64014 21.34379 11.87677 5.39698 77.31825 3.02397 68.45403 -1.95540 24.06583 93.54586 19.23634 7.53506 16.99266 16.01305 -4.17429 -20.20660 331.34540 -6.64546 -297.81177 83.76993 -0.06949 -0.24272 -63.29271 -1.91966 -45.78540 -27.08599 28.54838 13.57210 -319.27405 -9.80700 334.38770 -29.80292 -0.00390 -0.02813 3.88368 -29.03925 10.81756 
125.59951 87.51431 -101.05644 -14.19487 -5.04063 -75.23751 -18.66071 24.06191 6.91680 0.00651 0.01216 0.01019 -17.63201 25.32478 23.41265 3.16248 8.67435 6.46739 -137.23758 -69.07788 -111.53054 -27.67914 60.83947 -90.87202 15.45938 10.08393 -7.65172 21.36830 11.90318 5.84300 77.52746 2.29959 68.65214 -1.67399 24.45123 93.98487 18.64931 8.23165 16.06960 18.16895 -4.65794 -16.19061 325.51154 -3.13591 -292.76807 79.62921 -0.08023 -0.35668 -59.01721 -9.49179 -52.75496 -28.91519 24.01593 18.11556 -315.40005 -6.20596 328.85703 -30.13448 -0.01539 -0.01765 3.23979 -31.43286 9.23101 
126.23297 87.17331 -100.15309 -14.69884 -4.77724 -74.98408 -18.08435 25.00720 6.23446 0.00539 0.01125 0.00912 -17.52684 24.86608 22.87084 2.85226 8.61490 6.48327 -138.30316 -68.66972 -112.63816 -26.44769 61.14385 -91.27167 15.55662 9.78537 -7.62974 21.29016 11.84711 6.16100 77.77319 1.58087 68.88940 -1.39216 24.80341 94.45051 18.42586 8.65650 15.87733 19.92488 -5.63561 -12.43584 320.96594 1.62954 -287.89548 74.08340 -0.05221 -0.42494 -55.37383 -16.09226 -58.94036 -30.02930 20.11971 21.86365 -312.05066 -3.23076 324.08304 -29.83749 -0.02525 -0.00439 2.62113 -33.59436 7.72857 
126.74504 86.75943 -99.23961 -15.05835 -4.49190 -74.74725 -17.42500 25.82385 5.62097 0.00412 0.01023 0.00790 -17.35928 24.38089 22.24634 2.58004 8.53055 6.45238 -138.90550 -68.24802 -113.29025 -25.34845 61.28508 -91.67958 15.59853 9.53244 -7.55902 21.12486 11.73543 6.35614 78.06580 0.91143 69.18729 -1.16334 25.11810 94.93699 18.02211 9.19946 15.16247 21.28384 -7.01812 -8.98600 317.79135 7.13090 -284.07874 67.36852 0.00364 -0.39199 -51.77205 -20.98472 -63.88597 -30.64259 16.49202 24.95579 -309.53729 -1.69061 319.84546 -29.56791 -0.01410 -0.00340 2.47691 -34.43022 7.00922 
127.13867 86.31939 -98.34232 -15.29990 -4.18368 -74.52809 -16.69482 26.50735 5.07647 0.00285 0.00910 0.00649 -17.14371 23.88964 21.57643 2.34524 8.44442 6.39344 -139.21497 -67.83080 -113.67030 -24.46763 61.30201 -92.03845 15.61912 9.36123 -7.45717 20.89380 11.59537 6.42950 78.40897 0.32998 69.54985 -1.03487 25.40033 95.47297 17.87982 9.56672 14.86230 22.22166 -8.71056 -5.87246 316.01535 13.09298 -281.96741 59.62128 0.04039 -0.27004 -47.53601 -24.03734 -67.03092 -30.88444 13.36421 27.49682 -307.49829 0.11258 316.26501 -28.77296 -0.01396 0.00449 2.31632 -35.36105 6.25757 
127.45007 85.90862 -97.48613 -15.44902 -3.84510 -74.31560 -15.89687 27.06315 4.59146 0.00166 0.00806 0.00512 -16.88957 23.40873 20.89040 2.14344 8.37081 6.31613 -139.39200 -67.42741 -113.95011 -23.84125 61.24004 -92.32081 15.61009 9.25376 -7.32058 20.61312 11.44665 6.40065 78.80785 -0.15041 69.97502 -1.03396 25.65493 96.06237 17.62341 9.94490 14.24425 22.70374 -10.59685 -3.14824 315.59030 19.00423 -281.84177 51.26978 0.02423 -0.10008 -42.20651 -25.53041 -68.08368 -30.88548 10.66428 29.56280 -305.78250 1.82084 313.34671 -27.86266 -0.00501 0.00911 2.18939 -36.04424 5.63092 
